<svg width="61" height="44" viewBox="0 0 61 44" fill="none" xmlns="http://www.w3.org/2000/svg">
<path d="M55.2048 36.6523L60.0001 40.1235L55.2048 43.5947" stroke="#D25100" stroke-width="0.572564"/>
<path d="M55.2048 36.6523L60.0001 40.1235L55.2048 43.5947" stroke="#D25100" stroke-width="0.572564"/>
<path d="M55.2048 36.6523L60.0001 40.1235L55.2048 43.5947" stroke="#D25100" stroke-width="0.572564"/>
<path d="M55.2048 36.6523L60.0001 40.1235L55.2048 43.5947" stroke="#D25100" stroke-width="0.572564"/>
<path d="M46.7594 1.31592C43.6007 3.1195 41.32 4.39822 38.648 5.87735C37.2071 6.67894 35.0981 7.84315 33.9721 8.47297C32.846 9.10279 31.5005 9.83758 30.9948 10.1239L30.0596 10.6296V13.1966C30.0596 14.9239 30.0882 15.7541 30.1645 15.7541C30.2123 15.7541 30.6989 15.5251 31.2333 15.2388C31.7677 14.962 33.1323 14.2463 34.2584 13.6547C35.3844 13.063 37.0926 12.1565 38.0373 11.6412C38.9916 11.1163 39.8027 10.6964 39.8313 10.6964C39.86 10.6964 39.8886 13.6451 39.8886 17.2427V23.7891L40.2512 23.5696C40.4421 23.4551 41.6349 22.7871 42.8946 22.1C44.1542 21.4129 45.7574 20.535 46.454 20.1437L47.7136 19.4376V16.9278C47.7136 15.5441 47.6755 14.4181 47.6373 14.4181C47.5991 14.4181 47.0647 14.6757 46.4635 15.0002C45.8719 15.3151 44.6122 15.964 43.6771 16.4316L41.988 17.2809L42.0071 13.3016L42.0357 9.32227L42.9423 8.8356C43.4289 8.57794 44.9176 7.79544 46.2345 7.1179L48.6202 5.87735L48.6488 3.08133C48.6584 1.55449 48.6393 0.294846 48.6011 0.294846C48.5534 0.304388 47.7327 0.752897 46.7594 1.31592Z" fill="#5C5E5D"/>
<path d="M45.5189 9.20567C44.4405 9.68281 43.3622 10.1599 43.1046 10.2554C42.8564 10.3508 42.6083 10.5035 42.5606 10.5989C42.4461 10.8089 42.427 15.3989 42.5415 15.3512C42.5797 15.3321 43.534 14.8645 44.66 14.311C45.7861 13.748 46.9407 13.2041 47.2175 13.08L47.7137 12.8701V10.5894C47.7137 8.82396 47.6851 8.30865 47.5992 8.3182C47.5324 8.3182 46.5972 8.71899 45.5189 9.20567Z" fill="#5C5E5D"/>
<path d="M13.3671 1.31592C16.5258 3.1195 18.8065 4.39822 21.4784 5.87735C22.9194 6.67894 25.0283 7.84315 26.1544 8.47297C27.2804 9.10279 28.6259 9.83758 29.1317 10.1239L30.0669 10.6296V13.1966C30.0669 14.9239 30.0383 15.7541 29.9619 15.7541C29.9142 15.7541 29.4275 15.5251 28.8931 15.2388C28.3587 14.962 26.9941 14.2463 25.8681 13.6547C24.742 13.063 23.0339 12.1565 22.0892 11.6412C21.1349 11.1163 20.3238 10.6964 20.2951 10.6964C20.2665 10.6964 20.2379 13.6451 20.2379 17.2427V23.7891L19.8753 23.5696C19.6844 23.4551 18.4916 22.7871 17.2319 22.1C15.9723 21.4129 14.3691 20.535 13.6725 20.1437L12.4128 19.4376V16.9278C12.4128 15.5441 12.451 14.4181 12.4892 14.4181C12.5273 14.4181 13.0617 14.6757 13.6629 15.0002C14.2546 15.3151 15.5142 15.964 16.4494 16.4316L18.1385 17.2809L18.1194 13.3016L18.0908 9.32227L17.1842 8.83559C16.6975 8.57794 15.2089 7.79544 13.892 7.1179L11.5063 5.87735L11.4776 3.08132C11.4681 1.55449 11.4872 0.294846 11.5254 0.294846C11.5731 0.304388 12.3937 0.752897 13.3671 1.31592Z" fill="#D65102"/>
<path d="M14.6076 9.20567C15.6859 9.68281 16.7643 10.1599 17.0219 10.2554C17.27 10.3508 17.5181 10.5035 17.5658 10.5989C17.6804 10.8089 17.6994 15.3989 17.5849 15.3512C17.5468 15.3321 16.5925 14.8645 15.4664 14.311C14.3404 13.748 13.1857 13.2041 12.909 13.08L12.4128 12.8701V10.5894C12.4128 8.82396 12.4414 8.30865 12.5273 8.3182C12.5941 8.3182 13.5293 8.71899 14.6076 9.20567Z" fill="#D65102"/>
<path d="M37.7223 13.8102C36.7871 14.2778 36.0237 14.6977 36.0237 14.755C36.0237 14.8027 36.0905 15.0126 36.1668 15.2035C36.2432 15.4039 36.4149 15.9764 36.5485 16.4726C36.6821 16.9689 36.8348 17.5033 36.8825 17.6655C37.0352 18.1713 37.331 19.3641 37.5028 20.1466C37.5887 20.5665 37.7032 20.9959 37.7605 21.1104C37.8082 21.2154 37.8368 21.3394 37.8273 21.3967C37.8177 21.4444 37.8273 21.5017 37.8368 21.5303C37.8463 21.5589 37.9609 22.0265 38.0849 22.58C38.209 23.1335 38.3617 23.7538 38.4094 23.9637C38.4571 24.1736 38.6002 24.7653 38.7243 25.271C38.877 25.8818 38.9151 26.2062 38.8483 26.2062C38.7911 26.2062 38.8102 26.254 38.9056 26.3017C38.9915 26.3589 39.1251 26.3685 39.2014 26.3398C39.4114 26.2635 39.4782 24.2309 39.44 18.1808L39.4114 12.9609L37.7223 13.8102Z" fill="#D25100"/>
<path d="M37.537 27.3656C38.4722 26.898 39.2356 26.4781 39.2356 26.4208C39.2356 26.3731 39.1688 26.1632 39.0925 25.9723C39.0161 25.7719 38.8443 25.1994 38.7107 24.7031C38.5771 24.2069 38.4245 23.6725 38.3767 23.5103C38.2241 23.0045 37.9282 21.8117 37.7565 21.0292C37.6706 20.6093 37.5561 20.1799 37.4988 20.0654C37.4511 19.9604 37.4225 19.8363 37.432 19.7791C37.4416 19.7314 37.432 19.6741 37.4225 19.6455C37.4129 19.6169 37.2984 19.1493 37.1744 18.5958C37.0503 18.0423 36.8976 17.422 36.8499 17.2121C36.8022 17.0021 36.6591 16.4105 36.535 15.9047C36.3823 15.294 36.3441 14.9695 36.4109 14.9695C36.4682 14.9695 36.4491 14.9218 36.3537 14.8741C36.2678 14.8169 36.1342 14.8073 36.0579 14.8359C35.8479 14.9123 35.7811 16.9449 35.8193 22.995L35.8479 28.2149L37.537 27.3656Z" fill="#FB6500"/>
<path d="M32.8556 16.3141C31.9204 16.7817 31.157 17.2016 31.157 17.2589C31.157 17.3066 31.2238 17.5165 31.3001 17.7074C31.3765 17.9078 31.5482 18.4803 31.6818 18.9766C31.8154 19.4728 31.9681 20.0072 32.0158 20.1694C32.1685 20.6752 32.4643 21.868 32.6361 22.6505C32.722 23.0704 32.8365 23.4998 32.8938 23.6143C32.9415 23.7193 32.9701 23.8433 32.9606 23.9006C32.951 23.9483 32.9606 24.0056 32.9701 24.0342C32.9796 24.0628 33.0942 24.5304 33.2182 25.0839C33.3423 25.6374 33.495 26.2577 33.5427 26.4676C33.5904 26.6775 33.7335 27.2692 33.8576 27.775C34.0103 28.3857 34.0484 28.7101 33.9816 28.7101C33.9244 28.7101 33.9435 28.7579 34.0389 28.8056C34.1248 28.8628 34.2584 28.8724 34.3347 28.8437C34.5447 28.7674 34.6115 26.7348 34.5733 20.6847L34.5447 15.4648L32.8556 16.3141Z" fill="#D25100"/>
<path d="M32.6703 29.8695C33.6055 29.4019 34.3689 28.982 34.3689 28.9247C34.3689 28.877 34.3021 28.6671 34.2258 28.4762C34.1494 28.2758 33.9776 27.7033 33.844 27.207C33.7104 26.7108 33.5578 26.1764 33.5101 26.0142C33.3574 25.5084 33.0615 24.3156 32.8898 23.5331C32.8039 23.1132 32.6894 22.6838 32.6321 22.5693C32.5844 22.4643 32.5558 22.3402 32.5653 22.283C32.5749 22.2353 32.5653 22.178 32.5558 22.1494C32.5462 22.1208 32.4317 21.6532 32.3077 21.0997C32.1836 20.5462 32.0309 19.9259 31.9832 19.716C31.9355 19.5061 31.7924 18.9144 31.6683 18.4086C31.5156 17.7979 31.4774 17.4734 31.5442 17.4734C31.6015 17.4734 31.5824 17.4257 31.487 17.378C31.4011 17.3208 31.2675 17.3112 31.1912 17.3399C30.9812 17.4162 30.9144 19.4488 30.9526 25.4989L30.9812 30.7188L32.6703 29.8695Z" fill="#FF6400"/>
<path d="M22.9366 14.0954C23.8718 14.563 24.6353 14.9829 24.6353 15.0401C24.6353 15.0878 24.5685 15.2978 24.4921 15.4886C24.4158 15.689 24.244 16.2616 24.1104 16.7578C23.9768 17.254 23.8241 17.7884 23.7764 17.9506C23.6237 18.4564 23.3279 19.6493 23.1561 20.4318C23.0702 20.8516 22.9557 21.2811 22.8985 21.3956C22.8508 21.5005 22.8221 21.6246 22.8317 21.6819C22.8412 21.7296 22.8317 21.7868 22.8221 21.8155C22.8126 21.8441 22.6981 22.3117 22.574 22.8652C22.45 23.4186 22.2973 24.0389 22.2496 24.2489C22.2019 24.4588 22.0587 25.0504 21.9347 25.5562C21.782 26.1669 21.7438 26.4914 21.8106 26.4914C21.8679 26.4914 21.8488 26.5391 21.7533 26.5868C21.6675 26.6441 21.5339 26.6536 21.4575 26.625C21.2476 26.5487 21.1808 24.516 21.219 18.466L21.2476 13.2461L22.9366 14.0954Z" fill="#F16A08"/>
<path d="M23.1219 27.6507C22.1868 27.1831 21.4233 26.7632 21.4233 26.706C21.4233 26.6583 21.4901 26.4483 21.5665 26.2575C21.6428 26.0571 21.8146 25.4845 21.9482 24.9883C22.0818 24.4921 22.2345 23.9577 22.2822 23.7954C22.4349 23.2897 22.7307 22.0968 22.9025 21.3143C22.9883 20.8945 23.1029 20.465 23.1601 20.3505C23.2078 20.2456 23.2365 20.1215 23.2269 20.0642C23.2174 20.0165 23.2269 19.9593 23.2365 19.9306C23.246 19.902 23.3605 19.4344 23.4846 18.8809C23.6086 18.3275 23.7613 17.7072 23.809 17.4972C23.8567 17.2873 23.9999 16.6957 24.1239 16.1899C24.2766 15.5792 24.3148 15.2547 24.248 15.2547C24.1907 15.2547 24.2098 15.207 24.3052 15.1593C24.3911 15.102 24.5247 15.0925 24.6011 15.1211C24.811 15.1974 24.8778 17.23 24.8396 23.2801L24.811 28.5L23.1219 27.6507Z" fill="#D25100"/>
<path d="M27.8124 16.6032C28.7476 17.0708 29.511 17.4907 29.511 17.5479C29.511 17.5956 29.4442 17.8056 29.3678 17.9964C29.2915 18.1968 29.1197 18.7694 28.9861 19.2656C28.8525 19.7618 28.6999 20.2962 28.6521 20.4585C28.4995 20.9642 28.2036 22.1571 28.0319 22.9396C27.946 23.3594 27.8315 23.7889 27.7742 23.9034C27.7265 24.0084 27.6979 24.1324 27.7074 24.1897C27.717 24.2374 27.7074 24.2946 27.6979 24.3233C27.6883 24.3519 27.5738 24.8195 27.4498 25.373C27.3257 25.9264 27.173 26.5467 27.1253 26.7567C27.0776 26.9666 26.9344 27.5583 26.8104 28.064C26.6577 28.6748 26.6195 28.9992 26.6863 28.9992C26.7436 28.9992 26.7245 29.0469 26.6291 29.0946C26.5432 29.1519 26.4096 29.1614 26.3333 29.1328C26.1233 29.0565 26.0565 27.0239 26.0947 20.9738L26.1233 15.7539L27.8124 16.6032Z" fill="#FF6400"/>
<path d="M27.9977 30.1585C27.0625 29.6909 26.2991 29.2711 26.2991 29.2138C26.2991 29.1661 26.3659 28.9561 26.4422 28.7653C26.5186 28.5649 26.6903 27.9923 26.8239 27.4961C26.9575 26.9999 27.1102 26.4655 27.1579 26.3033C27.3106 25.7975 27.6064 24.6047 27.7782 23.8221C27.8641 23.4023 27.9786 22.9728 28.0359 22.8583C28.0836 22.7534 28.1122 22.6293 28.1026 22.5721C28.0931 22.5243 28.1026 22.4671 28.1122 22.4385C28.1217 22.4098 28.2362 21.9422 28.3603 21.3888C28.4844 20.8353 28.637 20.215 28.6848 20.0051C28.7325 19.7951 28.8756 19.2035 28.9997 18.6977C29.1524 18.087 29.1905 17.7625 29.1237 17.7625C29.0665 17.7625 29.0856 17.7148 29.181 17.6671C29.2669 17.6098 29.4005 17.6003 29.4768 17.6289C29.6867 17.7053 29.7535 19.7379 29.7154 25.788L29.6867 31.0078L27.9977 30.1585Z" fill="#D25100"/>
<path d="M31.9683 23.4923C31.9683 23.5972 32.0064 23.664 32.0637 23.6259C32.1114 23.5972 32.1305 23.5114 32.0923 23.435C32.0255 23.2346 31.9683 23.2537 31.9683 23.4923Z" fill="#D25100"/>
<path d="M0.190855 36.1735C0.00954274 36.3548 0 36.4693 0 39.8856C0 43.0443 0.0190855 43.4165 0.162227 43.531C0.324453 43.6741 1.53638 43.7218 1.84175 43.5978C1.98489 43.531 2.00397 43.3497 2.00397 41.6606C2.00397 40.6395 2.0326 39.7998 2.08032 39.7998C2.11849 39.7998 2.31888 40.2387 2.51928 40.7827C2.71968 41.3171 3.0155 42.0518 3.17773 42.4049L3.46401 43.0538L4.32286 43.0252L5.19125 42.9966L5.76381 41.4506C6.08827 40.6013 6.37455 39.8761 6.42226 39.8379C6.46043 39.7998 6.48906 40.5823 6.48906 41.5842C6.48906 42.9202 6.51769 43.426 6.61312 43.5023C6.67037 43.5596 7.033 43.6264 7.39562 43.6646C7.99681 43.7218 8.0827 43.7123 8.2831 43.5214L8.49304 43.321V39.7711C8.49304 37.1278 8.46441 36.1831 8.37852 36.0972C8.30218 36.0208 7.93001 35.9827 7.32882 35.9827C6.46997 35.9827 6.38409 36.0017 6.26004 36.1926C6.18369 36.3167 5.82107 37.1373 5.45845 38.0343C4.51371 40.3341 4.37057 40.6586 4.30377 40.6586C4.2656 40.6586 3.88389 39.8093 3.44493 38.7691C3.0155 37.7385 2.55745 36.6984 2.45248 36.4598L2.24254 36.0304L1.3169 36.0017C0.48668 35.9827 0.372167 35.9922 0.190855 36.1735Z" fill="#5C5E5D"/>
<path d="M10.0486 36.0992L9.8291 36.2041V39.8017C9.8291 42.7409 9.85773 43.428 9.9627 43.5139C10.0486 43.5902 10.8788 43.6188 12.7969 43.5997L15.507 43.5711L15.8601 42.8554C16.0605 42.4642 16.2227 42.0824 16.2227 42.0252C16.2227 41.9298 15.6883 41.9011 14.0088 41.8821L11.7854 41.8534L11.7567 41.2522L11.7281 40.6606H12.9019C13.5508 40.6606 14.171 40.632 14.276 40.6033C14.4287 40.5652 14.5718 40.3457 14.7818 39.8399C14.944 39.4582 15.0776 39.1147 15.0776 39.086C15.0776 39.0574 14.3237 39.0383 13.4076 39.0383H11.7376V38.3703V37.7023H13.6462H15.5452L15.9365 37.0057C16.5567 35.8892 16.7858 35.9846 13.2931 35.9942C11.3178 35.9942 10.1822 36.0324 10.0486 36.0992Z" fill="#5C5E5D"/>
<path d="M18.6084 36.0689C17.969 36.2693 17.4346 36.7082 17.1484 37.2713C16.9575 37.6625 16.843 40.5253 16.9766 41.6037C17.1006 42.5389 17.301 42.911 17.9309 43.3309L18.3507 43.6172H20.7078C22.4064 43.6172 23.0839 43.5886 23.1698 43.5027C23.2557 43.4168 23.2843 42.7774 23.2843 41.2124V39.0367H22.0533C21.2708 39.0367 20.7937 39.0748 20.7555 39.1416C20.7173 39.1989 20.7173 39.4756 20.7555 39.7715C20.8128 40.2581 20.8414 40.3059 21.1468 40.4299L21.4808 40.5731L21.4521 41.1647L21.4235 41.7564L20.1448 41.785C19.181 41.8041 18.847 41.7754 18.7802 41.6896C18.6943 41.5464 18.6752 39.0176 18.7611 38.3019L18.8279 37.7961L20.412 37.777L21.9961 37.7484L22.4064 37.0327C23.0362 35.9162 23.1412 35.983 20.8319 35.9925C19.7344 35.9925 18.742 36.0307 18.6084 36.0689Z" fill="#5C5E5D"/>
<path d="M26.8627 36.1755C26.691 36.3663 26.691 36.3854 27.0059 37.2061C27.2922 37.9504 28.3991 40.3647 29.4965 42.6073C29.716 43.0653 30.0023 43.5139 30.1168 43.5902C30.4031 43.7715 31.4814 43.7238 31.6055 43.5234C31.6723 43.4184 31.4146 42.8077 30.6989 41.3286C30.1454 40.2025 29.4107 38.6566 29.0671 37.8932C28.1415 35.851 28.2846 36.0323 27.6166 36.0037C27.1395 35.9846 27.0154 36.0133 26.8627 36.1755Z" fill="#5C5E5D"/>
<path d="M44.2784 36.0391C43.3814 36.2109 42.8661 36.688 42.5893 37.5755C42.3508 38.358 42.3508 41.6407 42.5893 42.261C42.971 43.2534 43.515 43.6256 44.6792 43.6924C46.3015 43.7878 47.1126 43.2534 47.4848 41.8506C47.6756 41.154 47.6661 38.482 47.4752 37.7473C47.1603 36.5258 46.5782 36.0773 45.2804 36.0296C44.8605 36.0105 44.412 36.02 44.2784 36.0391ZM46.1583 36.898C46.5877 37.2129 46.7786 37.7186 46.874 38.7874C47.0458 40.6387 46.7977 42.2133 46.2633 42.6809C45.9293 42.9671 45.6716 43.0435 44.9559 43.0435C44.1257 43.0435 43.8108 42.929 43.5341 42.5186C43.1905 42.0224 43.1046 41.5166 43.1142 39.8944C43.1142 37.795 43.3718 37.0506 44.183 36.7166C44.2593 36.6785 44.6792 36.6689 45.1086 36.6785C45.7193 36.6976 45.9484 36.7357 46.1583 36.898Z" fill="#5C5E5D"/>
<path d="M53.2771 36.0593C53.1817 36.1166 53.1531 36.8896 53.134 39.1798L53.1054 42.2239L51.7312 39.7905C49.4219 35.7158 49.67 36.0784 49.1833 36.0784H48.7634V39.8478V43.6172H49.0974H49.4314L49.4505 40.4585L49.4791 37.2999L51.2923 40.4585L53.0958 43.6172H53.4585H53.8211L53.8402 40.2486C53.8497 38.4069 53.8592 36.7273 53.8592 36.5269C53.8497 36.0689 53.5921 35.8589 53.2771 36.0593Z" fill="#5C5E5D"/>
<path d="M30.5082 36.1452C30.47 36.1739 30.4414 36.3265 30.4414 36.4792V36.7464H31.4911H32.5408V40.1818V43.6172H32.9225H33.3042V40.1818V36.7464H34.3539H35.4036V36.4124V36.0784H32.9893C31.6533 36.0784 30.5368 36.1071 30.5082 36.1452Z" fill="#5C5E5D"/>
<path d="M36.3101 36.3738C36.272 36.5361 36.272 38.2347 36.3101 40.1432L36.3865 43.6168H36.7014H37.0258L37.0449 41.8704L37.0735 40.1337L37.7129 40.105C38.1423 40.086 38.3809 40.1146 38.4572 40.2005C38.5145 40.2673 39.0775 41.0498 39.6978 41.9372C40.3181 42.8247 40.9002 43.5977 40.9956 43.6454C41.1101 43.7122 41.2055 43.6836 41.3391 43.5404C41.53 43.3496 41.53 43.3496 40.5185 41.8704C39.3161 40.105 39.3065 40.086 39.6596 40.086C39.8028 40.086 40.1081 40.0001 40.3276 39.8856C41.5586 39.2939 41.8831 37.7766 41.0051 36.7746C40.4612 36.1543 40.1654 36.078 38.1519 36.078H36.3769L36.3101 36.3738ZM40.3181 37.0609C40.6712 37.414 40.8048 37.8911 40.7093 38.4064C40.5566 39.2367 39.9173 39.5134 38.1519 39.5134H37.0258V38.1297V36.746H38.5145H40.0032L40.3181 37.0609Z" fill="#5C5E5D"/>
<path d="M26.0326 38.3962C25.8895 38.7206 25.3265 39.9993 24.7634 41.2304C23.8282 43.3107 23.771 43.4824 23.9237 43.597C24.1336 43.7496 25.4696 43.6638 25.6318 43.4824C25.8131 43.2916 27.1968 40.1329 27.1968 39.9039C27.1968 39.7322 26.4143 37.795 26.338 37.795C26.3094 37.795 26.1758 38.0622 26.0326 38.3962Z" fill="#5C5E5D"/>
<path d="M12.4534 8.64816C12.4534 8.81038 12.5202 8.94398 12.6061 8.98215C12.7015 9.02032 12.7397 9.10621 12.7015 9.24935C12.6729 9.3734 12.6729 9.41158 12.7015 9.35432C12.7397 9.25889 12.7874 9.25889 12.8923 9.36386C12.9687 9.4402 13.0259 9.53563 13.0259 9.58334C13.0259 9.62152 13.1309 9.7742 13.255 9.9078C13.3886 10.0509 13.6176 10.4136 13.7894 10.7189C13.9516 11.0243 14.1138 11.301 14.152 11.3297C14.1997 11.3583 14.3715 11.6159 14.5432 11.9022C14.7245 12.1885 14.8868 12.4462 14.9249 12.4748C15.0108 12.5416 15.507 13.3146 15.507 13.3814C15.507 13.41 15.612 13.5722 15.7552 13.744C15.8888 13.9157 15.9937 14.078 15.9842 14.1257C15.9746 14.3261 17.2343 15.2422 17.5301 15.2422C17.5683 15.2422 17.6064 14.1829 17.6064 12.8756V10.5185L17.1484 10.3372C16.9003 10.2418 15.9078 9.81237 14.9345 9.40203C13.9611 8.98215 13.0068 8.58136 12.816 8.50502L12.4534 8.38096V8.64816Z" fill="#D25100"/>
<path d="M17.6064 14.9729C17.6064 14.8107 17.5396 14.6771 17.4538 14.6389C17.3583 14.6008 17.3202 14.5149 17.3583 14.3717C17.387 14.2477 17.387 14.2095 17.3583 14.2668C17.3202 14.3622 17.2724 14.3622 17.1675 14.2572C17.0911 14.1809 17.0339 14.0855 17.0339 14.0377C17.0339 13.9996 16.9289 13.8469 16.8049 13.7133C16.6713 13.5702 16.4422 13.2075 16.2705 12.9022C16.1082 12.5968 15.946 12.3201 15.9078 12.2914C15.8601 12.2628 15.6884 12.0051 15.5166 11.7189C15.3353 11.4326 15.173 11.1749 15.1349 11.1463C15.049 11.0795 14.5528 10.3065 14.5528 10.2397C14.5528 10.2111 14.4478 10.0489 14.3047 9.87712C14.1711 9.70535 14.0661 9.54312 14.0756 9.49541C14.0852 9.29501 12.8255 8.37891 12.5297 8.37891C12.4915 8.37891 12.4534 9.43815 12.4534 10.7455V13.1026L12.9114 13.2839C13.1595 13.3793 14.152 13.8087 15.1253 14.2191C16.0987 14.6389 17.053 15.0397 17.2438 15.1161L17.6064 15.2401V14.9729Z" fill="#F16A08"/>
</svg>
