<?xml version="1.0" encoding="UTF-8"?>
<svg version="1.1" viewBox="0 0 2048 707" width="825" height="285" xmlns="http://www.w3.org/2000/svg">
<path transform="translate(472,85)" d="m0 0h86l2 3 26 1 8 7 14 14 7 8 7 7 7 8 17 17 7 8 10 10 7 8 7 7 7 8 17 17 7 8 2 4-11 13-14 17-12 14-9 11-11 13-9 11-12 14-9 11-11 13-14 17-12 14-9 11-12 14-9 11-11 13-9 11-11 13-9 11-13 15-8 10-22 26-9 11-12 14-9 11-11 13-9 11-11 13-9 11-12 14-9 11-22 26-1 2-4-1-8-10-13-15-11-13-9-11-13-15-33-39-12-14-9-11-12-14-11-13-12-14-9-11-13-15-9-11-24-28-9-11-9-10-8-10-13-15-9-11-12-14-22-26-12-14-9-11-13-15-33-39-7-8v-3l16-17 12-13 17-17 7-8 8-8 7-8 11-11 7-8 15-15 7-8 14-15 2-1h48l6 8 13 21 12 19 16 26 12 19 13 21 15 24 13 21 7 11 4-2 15-16 12-14 10-10 9-11 7-7-1-5-10-18-16-29-13-23-17-32-1-3 190-1z" fill="#313231"/>
<path transform="translate(1474,436)" d="m0 0 17 2 9 4 11 7 7 7 5 8 16-16 15-8 13-3h23l12 3 12 6 9 8 7 11 5 14 3 19v119l-35 1-1-1-1-107-2-18-5-12-4-5-8-4-4-1h-16l-10 5-6 5-8 13-4 14-1 77v33l-31 1h-5l-1-1-1-116-3-12-5-10-7-6-9-3h-16l-10 5-5 4-7 11-4 13-1 11-1 103-19 1h-16l-1-1v-176h36l1 15h2l2-4 13-9 9-4 9-2z" fill="#313231"/>
<path transform="translate(472,85)" d="m0 0h86l2 4-9 6-12 11-14 13-8 7-14 12-10 9-11 9-12 11-11 9-14 13-8 7-4 4 1 1 9 1 30 1-2 4-7 7-7 8-92 92-8 7-7 7-7 8-13 12-20 20-8 7-27 27h-2l-2 4-7 6-1 2h-2l-2 4-3 1 2-5 12-20 14-24 15-25 17-29 10-17 9-16 2-3-9-1-40-1 2-4 7-7 7-8 13-13 7-8 27-27 7-8 18-18 7-8 17-17 7-8 28-28 7-8 11-11 7-8 7-7z" fill="#E7AF17"/>
<path transform="translate(1220,132)" d="m0 0h35l2 1-1 99 6-5 9-11 9-10 9-11 9-10 9-11 9-10 9-11 13-15 5-6h47l-6 7-7 8-9 10-7 8-18 20-7 8-27 30-7 8-9 10-6 8 11 12 7 8 12 14 12 13 9 11 13 14 9 11 13 14 7 8 12 14 4 4v2h-50l-9-10-9-11-13-15-22-26-9-11-12-14-7-8-7-9-1 7-1 97h-36z" fill="#313231"/>
<path transform="translate(1108,128)" d="m0 0h24l22 3 13 4 5 2 1 2v41l-5-2-14-8-16-5-12-2h-16l-13 2-11 4-8 6-5 7-1 3v16l5 10 9 8 21 12 24 12 16 10 12 9 10 10 7 11 5 12 2 14v8l-3 15-8 16-9 10-10 7-15 7-16 4-16 2h-22l-20-3-15-4-12-5-5-3v-44l4 2 11 8 14 7 17 5 11 2h23l15-4 8-5 6-7 2-7v-15l-5-10-8-8-18-11-20-10-20-11-13-9-10-9-7-8-6-12-3-10-1-7v-10l3-15 6-12 8-10 10-9 15-8 16-5z" fill="#323231"/>
<path transform="translate(944,142)" d="m0 0h58l17 1-5 5-14 12-13 12-11 9-4 2-1 4-6 4-7 5-1 3-9 6-5 5-1 2h-2l-1 3h-2v2l-8 7-6 7-2 6 1 4 20 1-2 4-32 32-6 8-8 7-8 8h-2l-2 4-17 16-3 3h-2l-1 2-7 6-8 8h-2v2h-2v2l-8 7-16 15-13 12-9 9-8 7-13 13-8 7-8 8h-2l2-5 12-19 13-21 16-26 14-23 10-17 3-5-43-1 2-4 158-158z" fill="#E7AF17"/>
<path transform="translate(1261,437)" d="m0 0h24l16 3 11 4 11 6 10 9 5 5 7 10 7 15 4 16 2 19v9l-2 18-4 15-8 17-11 14-12 10-15 8-18 5-9 1h-21l-16-3-13-5-12-7-12-11-10-14-7-16-4-17-1-8v-17l3-21 4-13 9-17 9-11 12-10 15-8 17-5zm0 32-13 4-11 8-8 10-6 14-3 17v15l3 16 4 11 8 11 7 6 12 6 8 2h20l12-4 9-6 8-9 6-12 3-13 1-17-1-14-4-16-6-12-6-7-10-6-8-3-4-1z" fill="#313231"/>
<path transform="translate(1973,436)" d="m0 0 17 1 15 3 13 5 1 3v36l-5-2-16-8-15-4h-22l-10 4-6 7-1 3v8l4 8 11 7 27 11 16 8 9 7 7 7 6 12 2 7v16l-3 11-4 8-9 10-8 6-10 5-13 4-12 2h-25l-16-3-14-5-7-4v-40l5 2 10 7 13 6 15 4h22l12-4 5-6 1-3v-9l-3-6v-2l-4-2-8-5-29-12-17-9-10-9-7-10-4-13v-14l3-12 6-10 8-9 10-7 14-6 15-3z" fill="#323231"/>
<path transform="translate(1829,437)" d="m0 0h26l15 3 13 5 2 3v37l-4-1-11-7-12-5-7-2h-21l-13 4-10 7-8 8-8 16-3 11-1 8v14l3 16 4 10 8 11 8 6 8 4 11 3 10 1 13-2 11-4 11-6 9-7 2 1-1 37-16 8-16 4-7 1h-21l-13-2-15-5-13-8-12-11-9-12-7-14-5-19-1-10v-13l2-18 5-17 8-16 10-13 11-10 14-8 10-4 11-3z" fill="#323231"/>
<path transform="translate(1108,437)" d="m0 0h26l14 3 13 5 2 1 1 39-4-1-13-8-13-5-4-1h-22l-12 4-11 7-7 8-6 10-5 16-1 9v15l3 16 7 14 7 8 11 7 14 4h19l13-4 13-7 9-7h1v38l-16 8-16 4-7 1h-22l-12-2-15-5-13-8-10-9-8-9-8-14-6-18-2-17v-11l2-20 5-17 9-17 9-11 11-10 14-8 13-5 8-2z" fill="#313231"/>
<path transform="translate(1680,440)" d="m0 0 36 1v176l-25 1h-11l-1-1v-176z" fill="#343331"/>
<path transform="translate(471,206)" d="m0 0 1 2 5 2 1 6-4 12-6 9-24 24h-2l-2 4-6 6h-2v2h-2l-2 4h-2l-2 4-38 38-10 11h-2l-2 4-57 57-8 7-4 4h-2v2l-10 8-12 5-6 1-3-2 1-5 6-9 1-4 30-30 8-7 22-22 8-7 11-12 17-16 88-88 7-8z" fill="#56472E"/>
<path transform="translate(769,142)" d="m0 0 71 1 13 15 9 10 9 11 7 8-2 4-36 36-4-2-8-10-11-13-18-22-11-13-13-16-6-7z" fill="#323231"/>
<path transform="translate(556,90)" d="m0 0 5 2 3 4-1 7-4 8-4 6-3 3h-2v2l-8 7-14 12-8 7h-2v2l-10 8-14 12-8 6-2 3h-2v2h-2l-2 4-5 6-2 4-1 6 4 1-1 3v-2h-30l-9-1-2-2 11-11 11-9 14-13 11-9 12-11 11-9 12-11 8-7 10-9 8-7 7-7z" fill="#6B5527"/>
<path transform="translate(457,221)" d="m0 0 3 4-1 8-7 9-7 6-3 4h-2v2l-8 7-59 59-8 7-24 24h-2v2l-8 7-4 4h-2l-2 4-9 6-6-1h-2l-2-1 15-14 19-19 8-7 11-12 17-16z" fill="#886923"/>
<path transform="translate(1694,363)" d="m0 0h7l8 3 7 6 4 8v10l-5 10-6 5-6 2h-11l-8-4-5-6-3-7v-9l3-7 6-7z" fill="#323231"/>
<path transform="translate(471,206)" d="m0 0v3l-4 5h4l1 7-6 11-9 10-5 6-8 7-8 8-8 7-60 60-7 8-4 2-2 4-5 5h-2l-1 3h-2l-2 4-5 4-5 5-5 6-8 7-10 9-10 8-10 5-3-1v-7l-8 8-2-1 26-26 6-2 2 2 5-1 8-6 13-13h2v-2l8-7 24-24 8-7 59-59h2v-2l8-7 2-3h2l2-4 4-5 1-9-1-4z" fill="#6B5527"/>
<path transform="translate(547,97)" d="m0 0 2 1-5 5-1 9-4 7-5 4-12 12-4 3h-2v2l-11 9-13 12-8 7-13 11-12 11-1 2h-2l-2 5-1 4 11 1v1h-21l-9-1-2-2 11-11 11-9 14-13 11-9 12-11 11-9 12-11 8-7 10-9 8-7z" fill="#876823"/>
<path transform="translate(556,90)" d="m0 0 5 2 3 4-1 7-4 8-4 6-3 3h-2v2l-8 7-14 12-8 7h-2v2l-10 8-14 12-8 6-2 3h-2v2h-2l-2 4-5 6-2 4-1 6 4 1-1 3v-2h-9l-3-2 1-7 9-10 14-13 10-8 7-7 10-8 10-9 11-9 3-1v-2h2v-2h2l1-3 6-5 1-2h2l2-5 3-6v-7l-3-1z" fill="#57482D"/>
<path transform="translate(288,278)" d="m0 0h40l10 1-8 15-5 9-1-3-6-2-5-4-12-5-2-2-1-6 1-2h-11z" fill="#6B5527"/>
<path transform="translate(288,278)" d="m0 0h15l6 1 2 7 12 6 6-1v5l-4 7-1-3-6-2-5-4-12-5-2-2-1-6 1-2h-11z" fill="#58482D"/>
<path transform="translate(303,278)" d="m0 0h25l10 1-4 8h-3l-3 1-2-1v-2l-3-1 1-5h-21z" fill="#876823"/>
<path transform="translate(946,206)" d="m0 0" fill="#E7AF17"/>
<path transform="translate(958,196)" d="m0 0" fill="#E7AF17"/>
<path transform="translate(985,173)" d="m0 0" fill="#E7AF17"/>
</svg>
